<?xml version="1.0" encoding="utf-8" standalone="no"?>
<!DOCTYPE svg PUBLIC "-//W3C//DTD SVG 1.1//EN"
  "http://www.w3.org/Graphics/SVG/1.1/DTD/svg11.dtd">
<svg xmlns:xlink="http://www.w3.org/1999/xlink" width="460.8pt" height="345.6pt" viewBox="0 0 460.8 345.6" xmlns="http://www.w3.org/2000/svg" version="1.1">
 <metadata>
  <rdf:RDF xmlns:dc="http://purl.org/dc/elements/1.1/" xmlns:cc="http://creativecommons.org/ns#" xmlns:rdf="http://www.w3.org/1999/02/22-rdf-syntax-ns#">
   <cc:Work>
    <dc:type rdf:resource="http://purl.org/dc/dcmitype/StillImage"/>
    <dc:date>2024-02-29T07:53:34.314872</dc:date>
    <dc:format>image/svg+xml</dc:format>
    <dc:creator>
     <cc:Agent>
      <dc:title>Matplotlib v3.6.2, https://matplotlib.org/</dc:title>
     </cc:Agent>
    </dc:creator>
   </cc:Work>
  </rdf:RDF>
 </metadata>
 <defs>
  <style type="text/css">*{stroke-linejoin: round; stroke-linecap: butt}</style>
 </defs>
 <g id="figure_1">
  <g id="patch_1">
   <path d="M 0 345.6 
L 460.8 345.6 
L 460.8 0 
L 0 0 
z
" style="fill: #ffffff"/>
  </g>
  <g id="axes_1">
   <g id="patch_2">
    <path d="M 57.6 307.584 
L 414.72 307.584 
L 414.72 41.472 
L 57.6 41.472 
z
" style="fill: #ffffff"/>
   </g>
   <g id="PathCollection_1">
    <defs>
     <path id="meea6bcb4c7" d="M 0 1.5 
C 0.397805 1.5 0.77937 1.341951 1.06066 1.06066 
C 1.341951 0.77937 1.5 0.397805 1.5 0 
C 1.5 -0.397805 1.341951 -0.77937 1.06066 -1.06066 
C 0.77937 -1.341951 0.397805 -1.5 0 -1.5 
C -0.397805 -1.5 -0.77937 -1.341951 -1.06066 -1.06066 
C -1.341951 -0.77937 -1.5 -0.397805 -1.5 0 
C -1.5 0.397805 -1.341951 0.77937 -1.06066 1.06066 
C -0.77937 1.341951 -0.397805 1.5 0 1.5 
z
" style="stroke: #1f77b4"/>
    </defs>
    <g clip-path="url(#p27500de6e2)">
     <use xlink:href="#meea6bcb4c7" x="73.832727" y="290.767316" style="fill: #1f77b4; stroke: #1f77b4"/>
     <use xlink:href="#meea6bcb4c7" x="75.887503" y="260.450999" style="fill: #1f77b4; stroke: #1f77b4"/>
     <use xlink:href="#meea6bcb4c7" x="77.942278" y="238.291214" style="fill: #1f77b4; stroke: #1f77b4"/>
     <use xlink:href="#meea6bcb4c7" x="79.997054" y="214.139214" style="fill: #1f77b4; stroke: #1f77b4"/>
     <use xlink:href="#meea6bcb4c7" x="82.05183" y="188.673507" style="fill: #1f77b4; stroke: #1f77b4"/>
     <use xlink:href="#meea6bcb4c7" x="84.106605" y="163.25111" style="fill: #1f77b4; stroke: #1f77b4"/>
     <use xlink:href="#meea6bcb4c7" x="86.161381" y="138.882565" style="fill: #1f77b4; stroke: #1f77b4"/>
     <use xlink:href="#meea6bcb4c7" x="88.216157" y="116.087581" style="fill: #1f77b4; stroke: #1f77b4"/>
     <use xlink:href="#meea6bcb4c7" x="90.270932" y="95.818957" style="fill: #1f77b4; stroke: #1f77b4"/>
     <use xlink:href="#meea6bcb4c7" x="92.325708" y="79.000619" style="fill: #1f77b4; stroke: #1f77b4"/>
     <use xlink:href="#meea6bcb4c7" x="94.380483" y="66.022348" style="fill: #1f77b4; stroke: #1f77b4"/>
     <use xlink:href="#meea6bcb4c7" x="96.435259" y="57.851379" style="fill: #1f77b4; stroke: #1f77b4"/>
     <use xlink:href="#meea6bcb4c7" x="98.490035" y="54.314475" style="fill: #1f77b4; stroke: #1f77b4"/>
     <use xlink:href="#meea6bcb4c7" x="100.54481" y="55.556" style="fill: #1f77b4; stroke: #1f77b4"/>
     <use xlink:href="#meea6bcb4c7" x="102.599586" y="61.35941" style="fill: #1f77b4; stroke: #1f77b4"/>
     <use xlink:href="#meea6bcb4c7" x="104.654361" y="71.363795" style="fill: #1f77b4; stroke: #1f77b4"/>
     <use xlink:href="#meea6bcb4c7" x="106.709137" y="85.208246" style="fill: #1f77b4; stroke: #1f77b4"/>
     <use xlink:href="#meea6bcb4c7" x="108.763913" y="102.401929" style="fill: #1f77b4; stroke: #1f77b4"/>
     <use xlink:href="#meea6bcb4c7" x="110.818688" y="121.890991" style="fill: #1f77b4; stroke: #1f77b4"/>
     <use xlink:href="#meea6bcb4c7" x="112.873464" y="135.259043" style="fill: #1f77b4; stroke: #1f77b4"/>
     <use xlink:href="#meea6bcb4c7" x="114.928239" y="154.704795" style="fill: #1f77b4; stroke: #1f77b4"/>
     <use xlink:href="#meea6bcb4c7" x="116.983015" y="176.54698" style="fill: #1f77b4; stroke: #1f77b4"/>
     <use xlink:href="#meea6bcb4c7" x="119.037791" y="198.894437" style="fill: #1f77b4; stroke: #1f77b4"/>
     <use xlink:href="#meea6bcb4c7" x="121.092566" y="220.361278" style="fill: #1f77b4; stroke: #1f77b4"/>
     <use xlink:href="#meea6bcb4c7" x="123.147342" y="239.792594" style="fill: #1f77b4; stroke: #1f77b4"/>
     <use xlink:href="#meea6bcb4c7" x="125.202117" y="256.452132" style="fill: #1f77b4; stroke: #1f77b4"/>
     <use xlink:href="#meea6bcb4c7" x="127.256893" y="269.372658" style="fill: #1f77b4; stroke: #1f77b4"/>
     <use xlink:href="#meea6bcb4c7" x="129.311669" y="278.43868" style="fill: #1f77b4; stroke: #1f77b4"/>
     <use xlink:href="#meea6bcb4c7" x="131.366444" y="286.17656" style="fill: #1f77b4; stroke: #1f77b4"/>
     <use xlink:href="#meea6bcb4c7" x="133.42122" y="288.558556" style="fill: #1f77b4; stroke: #1f77b4"/>
     <use xlink:href="#meea6bcb4c7" x="135.475995" y="289.338118" style="fill: #1f77b4; stroke: #1f77b4"/>
     <use xlink:href="#meea6bcb4c7" x="137.530771" y="295.488" style="fill: #1f77b4; stroke: #1f77b4"/>
     <use xlink:href="#meea6bcb4c7" x="139.585547" y="272.072254" style="fill: #1f77b4; stroke: #1f77b4"/>
     <use xlink:href="#meea6bcb4c7" x="141.640322" y="261.995687" style="fill: #1f77b4; stroke: #1f77b4"/>
     <use xlink:href="#meea6bcb4c7" x="143.695098" y="249.623742" style="fill: #1f77b4; stroke: #1f77b4"/>
     <use xlink:href="#meea6bcb4c7" x="145.749873" y="234.884237" style="fill: #1f77b4; stroke: #1f77b4"/>
     <use xlink:href="#meea6bcb4c7" x="147.804649" y="218.441244" style="fill: #1f77b4; stroke: #1f77b4"/>
     <use xlink:href="#meea6bcb4c7" x="149.859425" y="201.13207" style="fill: #1f77b4; stroke: #1f77b4"/>
     <use xlink:href="#meea6bcb4c7" x="151.9142" y="184.082751" style="fill: #1f77b4; stroke: #1f77b4"/>
     <use xlink:href="#meea6bcb4c7" x="153.968976" y="167.885175" style="fill: #1f77b4; stroke: #1f77b4"/>
     <use xlink:href="#meea6bcb4c7" x="156.023751" y="153.116798" style="fill: #1f77b4; stroke: #1f77b4"/>
     <use xlink:href="#meea6bcb4c7" x="158.078527" y="140.254017" style="fill: #1f77b4; stroke: #1f77b4"/>
     <use xlink:href="#meea6bcb4c7" x="160.133303" y="129.397888" style="fill: #1f77b4; stroke: #1f77b4"/>
     <use xlink:href="#meea6bcb4c7" x="162.188078" y="121.674445" style="fill: #1f77b4; stroke: #1f77b4"/>
     <use xlink:href="#meea6bcb4c7" x="164.242854" y="116.896016" style="fill: #1f77b4; stroke: #1f77b4"/>
     <use xlink:href="#meea6bcb4c7" x="166.297629" y="114.918238" style="fill: #1f77b4; stroke: #1f77b4"/>
     <use xlink:href="#meea6bcb4c7" x="168.352405" y="115.97209" style="fill: #1f77b4; stroke: #1f77b4"/>
     <use xlink:href="#meea6bcb4c7" x="170.407181" y="120.129757" style="fill: #1f77b4; stroke: #1f77b4"/>
     <use xlink:href="#meea6bcb4c7" x="172.461956" y="127.319055" style="fill: #1f77b4; stroke: #1f77b4"/>
     <use xlink:href="#meea6bcb4c7" x="174.516732" y="136.717114" style="fill: #1f77b4; stroke: #1f77b4"/>
     <use xlink:href="#meea6bcb4c7" x="176.571507" y="148.526041" style="fill: #1f77b4; stroke: #1f77b4"/>
     <use xlink:href="#meea6bcb4c7" x="178.626283" y="161.691985" style="fill: #1f77b4; stroke: #1f77b4"/>
     <use xlink:href="#meea6bcb4c7" x="180.681059" y="176.012836" style="fill: #1f77b4; stroke: #1f77b4"/>
     <use xlink:href="#meea6bcb4c7" x="182.735834" y="191.170995" style="fill: #1f77b4; stroke: #1f77b4"/>
     <use xlink:href="#meea6bcb4c7" x="184.79061" y="205.924936" style="fill: #1f77b4; stroke: #1f77b4"/>
     <use xlink:href="#meea6bcb4c7" x="186.845386" y="220.650004" style="fill: #1f77b4; stroke: #1f77b4"/>
     <use xlink:href="#meea6bcb4c7" x="188.900161" y="234.451147" style="fill: #1f77b4; stroke: #1f77b4"/>
     <use xlink:href="#meea6bcb4c7" x="190.954937" y="246.491056" style="fill: #1f77b4; stroke: #1f77b4"/>
     <use xlink:href="#meea6bcb4c7" x="193.009712" y="256.85635" style="fill: #1f77b4; stroke: #1f77b4"/>
     <use xlink:href="#meea6bcb4c7" x="195.064488" y="264.276629" style="fill: #1f77b4; stroke: #1f77b4"/>
     <use xlink:href="#meea6bcb4c7" x="197.119264" y="269.12724" style="fill: #1f77b4; stroke: #1f77b4"/>
     <use xlink:href="#meea6bcb4c7" x="199.174039" y="270.339893" style="fill: #1f77b4; stroke: #1f77b4"/>
     <use xlink:href="#meea6bcb4c7" x="201.228815" y="270.022293" style="fill: #1f77b4; stroke: #1f77b4"/>
     <use xlink:href="#meea6bcb4c7" x="203.28359" y="268.520914" style="fill: #1f77b4; stroke: #1f77b4"/>
     <use xlink:href="#meea6bcb4c7" x="205.338366" y="265.200555" style="fill: #1f77b4; stroke: #1f77b4"/>
     <use xlink:href="#meea6bcb4c7" x="207.393142" y="260.003472" style="fill: #1f77b4; stroke: #1f77b4"/>
     <use xlink:href="#meea6bcb4c7" x="209.447917" y="252.568756" style="fill: #1f77b4; stroke: #1f77b4"/>
     <use xlink:href="#meea6bcb4c7" x="211.502693" y="243.19957" style="fill: #1f77b4; stroke: #1f77b4"/>
     <use xlink:href="#meea6bcb4c7" x="213.557468" y="232.718786" style="fill: #1f77b4; stroke: #1f77b4"/>
     <use xlink:href="#meea6bcb4c7" x="215.612244" y="221.631676" style="fill: #1f77b4; stroke: #1f77b4"/>
     <use xlink:href="#meea6bcb4c7" x="217.66702" y="210.313584" style="fill: #1f77b4; stroke: #1f77b4"/>
     <use xlink:href="#meea6bcb4c7" x="219.721795" y="199.688436" style="fill: #1f77b4; stroke: #1f77b4"/>
     <use xlink:href="#meea6bcb4c7" x="221.776571" y="189.45307" style="fill: #1f77b4; stroke: #1f77b4"/>
     <use xlink:href="#meea6bcb4c7" x="223.831346" y="180.531411" style="fill: #1f77b4; stroke: #1f77b4"/>
     <use xlink:href="#meea6bcb4c7" x="225.886122" y="172.72135" style="fill: #1f77b4; stroke: #1f77b4"/>
     <use xlink:href="#meea6bcb4c7" x="227.940898" y="166.744704" style="fill: #1f77b4; stroke: #1f77b4"/>
     <use xlink:href="#meea6bcb4c7" x="229.995673" y="162.457111" style="fill: #1f77b4; stroke: #1f77b4"/>
     <use xlink:href="#meea6bcb4c7" x="232.050449" y="160.103987" style="fill: #1f77b4; stroke: #1f77b4"/>
     <use xlink:href="#meea6bcb4c7" x="234.105224" y="160.089551" style="fill: #1f77b4; stroke: #1f77b4"/>
     <use xlink:href="#meea6bcb4c7" x="236.16" y="162.240566" style="fill: #1f77b4; stroke: #1f77b4"/>
     <use xlink:href="#meea6bcb4c7" x="238.214776" y="166.340487" style="fill: #1f77b4; stroke: #1f77b4"/>
     <use xlink:href="#meea6bcb4c7" x="240.269551" y="171.869606" style="fill: #1f77b4; stroke: #1f77b4"/>
     <use xlink:href="#meea6bcb4c7" x="242.324327" y="179.001159" style="fill: #1f77b4; stroke: #1f77b4"/>
     <use xlink:href="#meea6bcb4c7" x="244.379102" y="187.561909" style="fill: #1f77b4; stroke: #1f77b4"/>
     <use xlink:href="#meea6bcb4c7" x="246.433878" y="196.887786" style="fill: #1f77b4; stroke: #1f77b4"/>
     <use xlink:href="#meea6bcb4c7" x="248.488654" y="207.050971" style="fill: #1f77b4; stroke: #1f77b4"/>
     <use xlink:href="#meea6bcb4c7" x="250.543429" y="217.214155" style="fill: #1f77b4; stroke: #1f77b4"/>
     <use xlink:href="#meea6bcb4c7" x="252.598205" y="227.131922" style="fill: #1f77b4; stroke: #1f77b4"/>
     <use xlink:href="#meea6bcb4c7" x="254.65298" y="236.327872" style="fill: #1f77b4; stroke: #1f77b4"/>
     <use xlink:href="#meea6bcb4c7" x="256.707756" y="245.004113" style="fill: #1f77b4; stroke: #1f77b4"/>
     <use xlink:href="#meea6bcb4c7" x="258.762532" y="252.511011" style="fill: #1f77b4; stroke: #1f77b4"/>
     <use xlink:href="#meea6bcb4c7" x="260.817307" y="258.458783" style="fill: #1f77b4; stroke: #1f77b4"/>
     <use xlink:href="#meea6bcb4c7" x="262.872083" y="262.313287" style="fill: #1f77b4; stroke: #1f77b4"/>
     <use xlink:href="#meea6bcb4c7" x="264.926858" y="265.388227" style="fill: #1f77b4; stroke: #1f77b4"/>
     <use xlink:href="#meea6bcb4c7" x="266.981634" y="266.037863" style="fill: #1f77b4; stroke: #1f77b4"/>
     <use xlink:href="#meea6bcb4c7" x="269.03641" y="265.85019" style="fill: #1f77b4; stroke: #1f77b4"/>
     <use xlink:href="#meea6bcb4c7" x="271.091185" y="264.117829" style="fill: #1f77b4; stroke: #1f77b4"/>
     <use xlink:href="#meea6bcb4c7" x="273.145961" y="261.605906" style="fill: #1f77b4; stroke: #1f77b4"/>
     <use xlink:href="#meea6bcb4c7" x="275.200736" y="257.376058" style="fill: #1f77b4; stroke: #1f77b4"/>
     <use xlink:href="#meea6bcb4c7" x="277.255512" y="251.818066" style="fill: #1f77b4; stroke: #1f77b4"/>
     <use xlink:href="#meea6bcb4c7" x="279.310288" y="245.581567" style="fill: #1f77b4; stroke: #1f77b4"/>
     <use xlink:href="#meea6bcb4c7" x="281.365063" y="238.522196" style="fill: #1f77b4; stroke: #1f77b4"/>
     <use xlink:href="#meea6bcb4c7" x="283.419839" y="231.188534" style="fill: #1f77b4; stroke: #1f77b4"/>
     <use xlink:href="#meea6bcb4c7" x="285.474614" y="223.869309" style="fill: #1f77b4; stroke: #1f77b4"/>
     <use xlink:href="#meea6bcb4c7" x="287.52939" y="217.055355" style="fill: #1f77b4; stroke: #1f77b4"/>
     <use xlink:href="#meea6bcb4c7" x="289.584166" y="210.530129" style="fill: #1f77b4; stroke: #1f77b4"/>
     <use xlink:href="#meea6bcb4c7" x="291.638941" y="205.390791" style="fill: #1f77b4; stroke: #1f77b4"/>
     <use xlink:href="#meea6bcb4c7" x="293.693717" y="200.886653" style="fill: #1f77b4; stroke: #1f77b4"/>
     <use xlink:href="#meea6bcb4c7" x="295.748493" y="197.826148" style="fill: #1f77b4; stroke: #1f77b4"/>
     <use xlink:href="#meea6bcb4c7" x="297.803268" y="196.425823" style="fill: #1f77b4; stroke: #1f77b4"/>
     <use xlink:href="#meea6bcb4c7" x="299.858044" y="196.093787" style="fill: #1f77b4; stroke: #1f77b4"/>
     <use xlink:href="#meea6bcb4c7" x="301.912819" y="196.599059" style="fill: #1f77b4; stroke: #1f77b4"/>
     <use xlink:href="#meea6bcb4c7" x="303.967595" y="198.807819" style="fill: #1f77b4; stroke: #1f77b4"/>
     <use xlink:href="#meea6bcb4c7" x="306.022371" y="201.926069" style="fill: #1f77b4; stroke: #1f77b4"/>
     <use xlink:href="#meea6bcb4c7" x="308.077146" y="206.228099" style="fill: #1f77b4; stroke: #1f77b4"/>
     <use xlink:href="#meea6bcb4c7" x="310.131922" y="211.598418" style="fill: #1f77b4; stroke: #1f77b4"/>
     <use xlink:href="#meea6bcb4c7" x="312.186697" y="217.502882" style="fill: #1f77b4; stroke: #1f77b4"/>
     <use xlink:href="#meea6bcb4c7" x="314.241473" y="223.927054" style="fill: #1f77b4; stroke: #1f77b4"/>
     <use xlink:href="#meea6bcb4c7" x="316.296249" y="230.842062" style="fill: #1f77b4; stroke: #1f77b4"/>
     <use xlink:href="#meea6bcb4c7" x="318.351024" y="237.511652" style="fill: #1f77b4; stroke: #1f77b4"/>
     <use xlink:href="#meea6bcb4c7" x="320.4058" y="244.311169" style="fill: #1f77b4; stroke: #1f77b4"/>
     <use xlink:href="#meea6bcb4c7" x="322.460575" y="249.638179" style="fill: #1f77b4; stroke: #1f77b4"/>
     <use xlink:href="#meea6bcb4c7" x="324.515351" y="254.228935" style="fill: #1f77b4; stroke: #1f77b4"/>
     <use xlink:href="#meea6bcb4c7" x="326.570127" y="258.357729" style="fill: #1f77b4; stroke: #1f77b4"/>
     <use xlink:href="#meea6bcb4c7" x="328.624902" y="261.27387" style="fill: #1f77b4; stroke: #1f77b4"/>
     <use xlink:href="#meea6bcb4c7" x="330.679678" y="263.468194" style="fill: #1f77b4; stroke: #1f77b4"/>
     <use xlink:href="#meea6bcb4c7" x="332.734453" y="264.132266" style="fill: #1f77b4; stroke: #1f77b4"/>
     <use xlink:href="#meea6bcb4c7" x="334.789229" y="264.016775" style="fill: #1f77b4; stroke: #1f77b4"/>
     <use xlink:href="#meea6bcb4c7" x="336.844005" y="263.309394" style="fill: #1f77b4; stroke: #1f77b4"/>
     <use xlink:href="#meea6bcb4c7" x="338.89878" y="261.562597" style="fill: #1f77b4; stroke: #1f77b4"/>
     <use xlink:href="#meea6bcb4c7" x="340.953556" y="259.772491" style="fill: #1f77b4; stroke: #1f77b4"/>
     <use xlink:href="#meea6bcb4c7" x="343.008331" y="257.058458" style="fill: #1f77b4; stroke: #1f77b4"/>
     <use xlink:href="#meea6bcb4c7" x="345.063107" y="254.041263" style="fill: #1f77b4; stroke: #1f77b4"/>
     <use xlink:href="#meea6bcb4c7" x="347.117883" y="250.18676" style="fill: #1f77b4; stroke: #1f77b4"/>
     <use xlink:href="#meea6bcb4c7" x="349.172658" y="246.620983" style="fill: #1f77b4; stroke: #1f77b4"/>
     <use xlink:href="#meea6bcb4c7" x="351.227434" y="242.535499" style="fill: #1f77b4; stroke: #1f77b4"/>
     <use xlink:href="#meea6bcb4c7" x="353.282209" y="239.619357" style="fill: #1f77b4; stroke: #1f77b4"/>
     <use xlink:href="#meea6bcb4c7" x="355.336985" y="236.587726" style="fill: #1f77b4; stroke: #1f77b4"/>
     <use xlink:href="#meea6bcb4c7" x="357.391761" y="234.277911" style="fill: #1f77b4; stroke: #1f77b4"/>
     <use xlink:href="#meea6bcb4c7" x="359.446536" y="232.733222" style="fill: #1f77b4; stroke: #1f77b4"/>
     <use xlink:href="#meea6bcb4c7" x="361.501312" y="231.578315" style="fill: #1f77b4; stroke: #1f77b4"/>
     <use xlink:href="#meea6bcb4c7" x="363.556087" y="230.437844" style="fill: #1f77b4; stroke: #1f77b4"/>
     <use xlink:href="#meea6bcb4c7" x="365.610863" y="230.17799" style="fill: #1f77b4; stroke: #1f77b4"/>
     <use xlink:href="#meea6bcb4c7" x="367.665639" y="231.04417" style="fill: #1f77b4; stroke: #1f77b4"/>
     <use xlink:href="#meea6bcb4c7" x="369.720414" y="231.939224" style="fill: #1f77b4; stroke: #1f77b4"/>
     <use xlink:href="#meea6bcb4c7" x="371.77519" y="233.657148" style="fill: #1f77b4; stroke: #1f77b4"/>
     <use xlink:href="#meea6bcb4c7" x="373.829965" y="235.8226" style="fill: #1f77b4; stroke: #1f77b4"/>
     <use xlink:href="#meea6bcb4c7" x="375.884741" y="238.117978" style="fill: #1f77b4; stroke: #1f77b4"/>
     <use xlink:href="#meea6bcb4c7" x="377.939517" y="240.918628" style="fill: #1f77b4; stroke: #1f77b4"/>
     <use xlink:href="#meea6bcb4c7" x="379.994292" y="244.181241" style="fill: #1f77b4; stroke: #1f77b4"/>
     <use xlink:href="#meea6bcb4c7" x="382.049068" y="247.3428" style="fill: #1f77b4; stroke: #1f77b4"/>
     <use xlink:href="#meea6bcb4c7" x="384.103843" y="250.504359" style="fill: #1f77b4; stroke: #1f77b4"/>
     <use xlink:href="#meea6bcb4c7" x="386.158619" y="253.535991" style="fill: #1f77b4; stroke: #1f77b4"/>
     <use xlink:href="#meea6bcb4c7" x="388.213395" y="256.625368" style="fill: #1f77b4; stroke: #1f77b4"/>
     <use xlink:href="#meea6bcb4c7" x="390.26817" y="259.296091" style="fill: #1f77b4; stroke: #1f77b4"/>
     <use xlink:href="#meea6bcb4c7" x="392.322946" y="261.346052" style="fill: #1f77b4; stroke: #1f77b4"/>
     <use xlink:href="#meea6bcb4c7" x="394.377722" y="263.222776" style="fill: #1f77b4; stroke: #1f77b4"/>
     <use xlink:href="#meea6bcb4c7" x="396.432497" y="264.724156" style="fill: #1f77b4; stroke: #1f77b4"/>
     <use xlink:href="#meea6bcb4c7" x="398.487273" y="265.792445" style="fill: #1f77b4; stroke: #1f77b4"/>
    </g>
   </g>
   <g id="matplotlib.axis_1">
    <g id="xtick_1">
     <g id="line2d_1">
      <defs>
       <path id="m029302780f" d="M 0 0 
L 0 3.5 
" style="stroke: #000000; stroke-width: 0.8"/>
      </defs>
      <g>
       <use xlink:href="#m029302780f" x="61.504074" y="307.584" style="stroke: #000000; stroke-width: 0.8"/>
      </g>
     </g>
     <g id="text_1">
      <!-- 0 -->
      <g transform="translate(58.322824 322.182437) scale(0.1 -0.1)">
       <defs>
        <path id="DejaVuSans-30" d="M 2034 4250 
Q 1547 4250 1301 3770 
Q 1056 3291 1056 2328 
Q 1056 1369 1301 889 
Q 1547 409 2034 409 
Q 2525 409 2770 889 
Q 3016 1369 3016 2328 
Q 3016 3291 2770 3770 
Q 2525 4250 2034 4250 
z
M 2034 4750 
Q 2819 4750 3233 4129 
Q 3647 3509 3647 2328 
Q 3647 1150 3233 529 
Q 2819 -91 2034 -91 
Q 1250 -91 836 529 
Q 422 1150 422 2328 
Q 422 3509 836 4129 
Q 1250 4750 2034 4750 
z
" transform="scale(0.015625)"/>
       </defs>
       <use xlink:href="#DejaVuSans-30"/>
      </g>
     </g>
    </g>
    <g id="xtick_2">
     <g id="line2d_2">
      <g>
       <use xlink:href="#m029302780f" x="122.865866" y="307.584" style="stroke: #000000; stroke-width: 0.8"/>
      </g>
     </g>
     <g id="text_2">
      <!-- 1 -->
      <g transform="translate(119.684616 322.182437) scale(0.1 -0.1)">
       <defs>
        <path id="DejaVuSans-31" d="M 794 531 
L 1825 531 
L 1825 4091 
L 703 3866 
L 703 4441 
L 1819 4666 
L 2450 4666 
L 2450 531 
L 3481 531 
L 3481 0 
L 794 0 
L 794 531 
z
" transform="scale(0.015625)"/>
       </defs>
       <use xlink:href="#DejaVuSans-31"/>
      </g>
     </g>
    </g>
    <g id="xtick_3">
     <g id="line2d_3">
      <g>
       <use xlink:href="#m029302780f" x="184.227658" y="307.584" style="stroke: #000000; stroke-width: 0.8"/>
      </g>
     </g>
     <g id="text_3">
      <!-- 2 -->
      <g transform="translate(181.046408 322.182437) scale(0.1 -0.1)">
       <defs>
        <path id="DejaVuSans-32" d="M 1228 531 
L 3431 531 
L 3431 0 
L 469 0 
L 469 531 
Q 828 903 1448 1529 
Q 2069 2156 2228 2338 
Q 2531 2678 2651 2914 
Q 2772 3150 2772 3378 
Q 2772 3750 2511 3984 
Q 2250 4219 1831 4219 
Q 1534 4219 1204 4116 
Q 875 4013 500 3803 
L 500 4441 
Q 881 4594 1212 4672 
Q 1544 4750 1819 4750 
Q 2544 4750 2975 4387 
Q 3406 4025 3406 3419 
Q 3406 3131 3298 2873 
Q 3191 2616 2906 2266 
Q 2828 2175 2409 1742 
Q 1991 1309 1228 531 
z
" transform="scale(0.015625)"/>
       </defs>
       <use xlink:href="#DejaVuSans-32"/>
      </g>
     </g>
    </g>
    <g id="xtick_4">
     <g id="line2d_4">
      <g>
       <use xlink:href="#m029302780f" x="245.58945" y="307.584" style="stroke: #000000; stroke-width: 0.8"/>
      </g>
     </g>
     <g id="text_4">
      <!-- 3 -->
      <g transform="translate(242.4082 322.182437) scale(0.1 -0.1)">
       <defs>
        <path id="DejaVuSans-33" d="M 2597 2516 
Q 3050 2419 3304 2112 
Q 3559 1806 3559 1356 
Q 3559 666 3084 287 
Q 2609 -91 1734 -91 
Q 1441 -91 1130 -33 
Q 819 25 488 141 
L 488 750 
Q 750 597 1062 519 
Q 1375 441 1716 441 
Q 2309 441 2620 675 
Q 2931 909 2931 1356 
Q 2931 1769 2642 2001 
Q 2353 2234 1838 2234 
L 1294 2234 
L 1294 2753 
L 1863 2753 
Q 2328 2753 2575 2939 
Q 2822 3125 2822 3475 
Q 2822 3834 2567 4026 
Q 2313 4219 1838 4219 
Q 1578 4219 1281 4162 
Q 984 4106 628 3988 
L 628 4550 
Q 988 4650 1302 4700 
Q 1616 4750 1894 4750 
Q 2613 4750 3031 4423 
Q 3450 4097 3450 3541 
Q 3450 3153 3228 2886 
Q 3006 2619 2597 2516 
z
" transform="scale(0.015625)"/>
       </defs>
       <use xlink:href="#DejaVuSans-33"/>
      </g>
     </g>
    </g>
    <g id="xtick_5">
     <g id="line2d_5">
      <g>
       <use xlink:href="#m029302780f" x="306.951242" y="307.584" style="stroke: #000000; stroke-width: 0.8"/>
      </g>
     </g>
     <g id="text_5">
      <!-- 4 -->
      <g transform="translate(303.769992 322.182437) scale(0.1 -0.1)">
       <defs>
        <path id="DejaVuSans-34" d="M 2419 4116 
L 825 1625 
L 2419 1625 
L 2419 4116 
z
M 2253 4666 
L 3047 4666 
L 3047 1625 
L 3713 1625 
L 3713 1100 
L 3047 1100 
L 3047 0 
L 2419 0 
L 2419 1100 
L 313 1100 
L 313 1709 
L 2253 4666 
z
" transform="scale(0.015625)"/>
       </defs>
       <use xlink:href="#DejaVuSans-34"/>
      </g>
     </g>
    </g>
    <g id="xtick_6">
     <g id="line2d_6">
      <g>
       <use xlink:href="#m029302780f" x="368.313034" y="307.584" style="stroke: #000000; stroke-width: 0.8"/>
      </g>
     </g>
     <g id="text_6">
      <!-- 5 -->
      <g transform="translate(365.131784 322.182437) scale(0.1 -0.1)">
       <defs>
        <path id="DejaVuSans-35" d="M 691 4666 
L 3169 4666 
L 3169 4134 
L 1269 4134 
L 1269 2991 
Q 1406 3038 1543 3061 
Q 1681 3084 1819 3084 
Q 2600 3084 3056 2656 
Q 3513 2228 3513 1497 
Q 3513 744 3044 326 
Q 2575 -91 1722 -91 
Q 1428 -91 1123 -41 
Q 819 9 494 109 
L 494 744 
Q 775 591 1075 516 
Q 1375 441 1709 441 
Q 2250 441 2565 725 
Q 2881 1009 2881 1497 
Q 2881 1984 2565 2268 
Q 2250 2553 1709 2553 
Q 1456 2553 1204 2497 
Q 953 2441 691 2322 
L 691 4666 
z
" transform="scale(0.015625)"/>
       </defs>
       <use xlink:href="#DejaVuSans-35"/>
      </g>
     </g>
    </g>
    <g id="text_7">
     <!-- Time (s) -->
     <g transform="translate(215.831094 335.860562) scale(0.1 -0.1)">
      <defs>
       <path id="DejaVuSans-54" d="M -19 4666 
L 3928 4666 
L 3928 4134 
L 2272 4134 
L 2272 0 
L 1638 0 
L 1638 4134 
L -19 4134 
L -19 4666 
z
" transform="scale(0.015625)"/>
       <path id="DejaVuSans-69" d="M 603 3500 
L 1178 3500 
L 1178 0 
L 603 0 
L 603 3500 
z
M 603 4863 
L 1178 4863 
L 1178 4134 
L 603 4134 
L 603 4863 
z
" transform="scale(0.015625)"/>
       <path id="DejaVuSans-6d" d="M 3328 2828 
Q 3544 3216 3844 3400 
Q 4144 3584 4550 3584 
Q 5097 3584 5394 3201 
Q 5691 2819 5691 2113 
L 5691 0 
L 5113 0 
L 5113 2094 
Q 5113 2597 4934 2840 
Q 4756 3084 4391 3084 
Q 3944 3084 3684 2787 
Q 3425 2491 3425 1978 
L 3425 0 
L 2847 0 
L 2847 2094 
Q 2847 2600 2669 2842 
Q 2491 3084 2119 3084 
Q 1678 3084 1418 2786 
Q 1159 2488 1159 1978 
L 1159 0 
L 581 0 
L 581 3500 
L 1159 3500 
L 1159 2956 
Q 1356 3278 1631 3431 
Q 1906 3584 2284 3584 
Q 2666 3584 2933 3390 
Q 3200 3197 3328 2828 
z
" transform="scale(0.015625)"/>
       <path id="DejaVuSans-65" d="M 3597 1894 
L 3597 1613 
L 953 1613 
Q 991 1019 1311 708 
Q 1631 397 2203 397 
Q 2534 397 2845 478 
Q 3156 559 3463 722 
L 3463 178 
Q 3153 47 2828 -22 
Q 2503 -91 2169 -91 
Q 1331 -91 842 396 
Q 353 884 353 1716 
Q 353 2575 817 3079 
Q 1281 3584 2069 3584 
Q 2775 3584 3186 3129 
Q 3597 2675 3597 1894 
z
M 3022 2063 
Q 3016 2534 2758 2815 
Q 2500 3097 2075 3097 
Q 1594 3097 1305 2825 
Q 1016 2553 972 2059 
L 3022 2063 
z
" transform="scale(0.015625)"/>
       <path id="DejaVuSans-20" transform="scale(0.015625)"/>
       <path id="DejaVuSans-28" d="M 1984 4856 
Q 1566 4138 1362 3434 
Q 1159 2731 1159 2009 
Q 1159 1288 1364 580 
Q 1569 -128 1984 -844 
L 1484 -844 
Q 1016 -109 783 600 
Q 550 1309 550 2009 
Q 550 2706 781 3412 
Q 1013 4119 1484 4856 
L 1984 4856 
z
" transform="scale(0.015625)"/>
       <path id="DejaVuSans-73" d="M 2834 3397 
L 2834 2853 
Q 2591 2978 2328 3040 
Q 2066 3103 1784 3103 
Q 1356 3103 1142 2972 
Q 928 2841 928 2578 
Q 928 2378 1081 2264 
Q 1234 2150 1697 2047 
L 1894 2003 
Q 2506 1872 2764 1633 
Q 3022 1394 3022 966 
Q 3022 478 2636 193 
Q 2250 -91 1575 -91 
Q 1294 -91 989 -36 
Q 684 19 347 128 
L 347 722 
Q 666 556 975 473 
Q 1284 391 1588 391 
Q 1994 391 2212 530 
Q 2431 669 2431 922 
Q 2431 1156 2273 1281 
Q 2116 1406 1581 1522 
L 1381 1569 
Q 847 1681 609 1914 
Q 372 2147 372 2553 
Q 372 3047 722 3315 
Q 1072 3584 1716 3584 
Q 2034 3584 2315 3537 
Q 2597 3491 2834 3397 
z
" transform="scale(0.015625)"/>
       <path id="DejaVuSans-29" d="M 513 4856 
L 1013 4856 
Q 1481 4119 1714 3412 
Q 1947 2706 1947 2009 
Q 1947 1309 1714 600 
Q 1481 -109 1013 -844 
L 513 -844 
Q 928 -128 1133 580 
Q 1338 1288 1338 2009 
Q 1338 2731 1133 3434 
Q 928 4138 513 4856 
z
" transform="scale(0.015625)"/>
      </defs>
      <use xlink:href="#DejaVuSans-54"/>
      <use xlink:href="#DejaVuSans-69" x="57.958984"/>
      <use xlink:href="#DejaVuSans-6d" x="85.742188"/>
      <use xlink:href="#DejaVuSans-65" x="183.154297"/>
      <use xlink:href="#DejaVuSans-20" x="244.677734"/>
      <use xlink:href="#DejaVuSans-28" x="276.464844"/>
      <use xlink:href="#DejaVuSans-73" x="315.478516"/>
      <use xlink:href="#DejaVuSans-29" x="367.578125"/>
     </g>
    </g>
   </g>
   <g id="matplotlib.axis_2">
    <g id="ytick_1">
     <g id="line2d_7">
      <defs>
       <path id="m45d2567a91" d="M 0 0 
L -3.5 0 
" style="stroke: #000000; stroke-width: 0.8"/>
      </defs>
      <g>
       <use xlink:href="#m45d2567a91" x="57.6" y="306.271947" style="stroke: #000000; stroke-width: 0.8"/>
      </g>
     </g>
     <g id="text_8">
      <!-- 68 -->
      <g transform="translate(37.875 310.071166) scale(0.1 -0.1)">
       <defs>
        <path id="DejaVuSans-36" d="M 2113 2584 
Q 1688 2584 1439 2293 
Q 1191 2003 1191 1497 
Q 1191 994 1439 701 
Q 1688 409 2113 409 
Q 2538 409 2786 701 
Q 3034 994 3034 1497 
Q 3034 2003 2786 2293 
Q 2538 2584 2113 2584 
z
M 3366 4563 
L 3366 3988 
Q 3128 4100 2886 4159 
Q 2644 4219 2406 4219 
Q 1781 4219 1451 3797 
Q 1122 3375 1075 2522 
Q 1259 2794 1537 2939 
Q 1816 3084 2150 3084 
Q 2853 3084 3261 2657 
Q 3669 2231 3669 1497 
Q 3669 778 3244 343 
Q 2819 -91 2113 -91 
Q 1303 -91 875 529 
Q 447 1150 447 2328 
Q 447 3434 972 4092 
Q 1497 4750 2381 4750 
Q 2619 4750 2861 4703 
Q 3103 4656 3366 4563 
z
" transform="scale(0.015625)"/>
        <path id="DejaVuSans-38" d="M 2034 2216 
Q 1584 2216 1326 1975 
Q 1069 1734 1069 1313 
Q 1069 891 1326 650 
Q 1584 409 2034 409 
Q 2484 409 2743 651 
Q 3003 894 3003 1313 
Q 3003 1734 2745 1975 
Q 2488 2216 2034 2216 
z
M 1403 2484 
Q 997 2584 770 2862 
Q 544 3141 544 3541 
Q 544 4100 942 4425 
Q 1341 4750 2034 4750 
Q 2731 4750 3128 4425 
Q 3525 4100 3525 3541 
Q 3525 3141 3298 2862 
Q 3072 2584 2669 2484 
Q 3125 2378 3379 2068 
Q 3634 1759 3634 1313 
Q 3634 634 3220 271 
Q 2806 -91 2034 -91 
Q 1263 -91 848 271 
Q 434 634 434 1313 
Q 434 1759 690 2068 
Q 947 2378 1403 2484 
z
M 1172 3481 
Q 1172 3119 1398 2916 
Q 1625 2713 2034 2713 
Q 2441 2713 2670 2916 
Q 2900 3119 2900 3481 
Q 2900 3844 2670 4047 
Q 2441 4250 2034 4250 
Q 1625 4250 1398 4047 
Q 1172 3844 1172 3481 
z
" transform="scale(0.015625)"/>
       </defs>
       <use xlink:href="#DejaVuSans-36"/>
       <use xlink:href="#DejaVuSans-38" x="63.623047"/>
      </g>
     </g>
    </g>
    <g id="ytick_2">
     <g id="line2d_8">
      <g>
       <use xlink:href="#m45d2567a91" x="57.6" y="258.487656" style="stroke: #000000; stroke-width: 0.8"/>
      </g>
     </g>
     <g id="text_9">
      <!-- 70 -->
      <g transform="translate(37.875 262.286875) scale(0.1 -0.1)">
       <defs>
        <path id="DejaVuSans-37" d="M 525 4666 
L 3525 4666 
L 3525 4397 
L 1831 0 
L 1172 0 
L 2766 4134 
L 525 4134 
L 525 4666 
z
" transform="scale(0.015625)"/>
       </defs>
       <use xlink:href="#DejaVuSans-37"/>
       <use xlink:href="#DejaVuSans-30" x="63.623047"/>
      </g>
     </g>
    </g>
    <g id="ytick_3">
     <g id="line2d_9">
      <g>
       <use xlink:href="#m45d2567a91" x="57.6" y="210.703365" style="stroke: #000000; stroke-width: 0.8"/>
      </g>
     </g>
     <g id="text_10">
      <!-- 72 -->
      <g transform="translate(37.875 214.502584) scale(0.1 -0.1)">
       <use xlink:href="#DejaVuSans-37"/>
       <use xlink:href="#DejaVuSans-32" x="63.623047"/>
      </g>
     </g>
    </g>
    <g id="ytick_4">
     <g id="line2d_10">
      <g>
       <use xlink:href="#m45d2567a91" x="57.6" y="162.919074" style="stroke: #000000; stroke-width: 0.8"/>
      </g>
     </g>
     <g id="text_11">
      <!-- 74 -->
      <g transform="translate(37.875 166.718293) scale(0.1 -0.1)">
       <use xlink:href="#DejaVuSans-37"/>
       <use xlink:href="#DejaVuSans-34" x="63.623047"/>
      </g>
     </g>
    </g>
    <g id="ytick_5">
     <g id="line2d_11">
      <g>
       <use xlink:href="#m45d2567a91" x="57.6" y="115.134783" style="stroke: #000000; stroke-width: 0.8"/>
      </g>
     </g>
     <g id="text_12">
      <!-- 76 -->
      <g transform="translate(37.875 118.934001) scale(0.1 -0.1)">
       <use xlink:href="#DejaVuSans-37"/>
       <use xlink:href="#DejaVuSans-36" x="63.623047"/>
      </g>
     </g>
    </g>
    <g id="ytick_6">
     <g id="line2d_12">
      <g>
       <use xlink:href="#m45d2567a91" x="57.6" y="67.350492" style="stroke: #000000; stroke-width: 0.8"/>
      </g>
     </g>
     <g id="text_13">
      <!-- 78 -->
      <g transform="translate(37.875 71.14971) scale(0.1 -0.1)">
       <use xlink:href="#DejaVuSans-37"/>
       <use xlink:href="#DejaVuSans-38" x="63.623047"/>
      </g>
     </g>
    </g>
    <g id="text_14">
     <!-- Position (cm) -->
     <g transform="translate(31.795312 207.102219) rotate(-90) scale(0.1 -0.1)">
      <defs>
       <path id="DejaVuSans-50" d="M 1259 4147 
L 1259 2394 
L 2053 2394 
Q 2494 2394 2734 2622 
Q 2975 2850 2975 3272 
Q 2975 3691 2734 3919 
Q 2494 4147 2053 4147 
L 1259 4147 
z
M 628 4666 
L 2053 4666 
Q 2838 4666 3239 4311 
Q 3641 3956 3641 3272 
Q 3641 2581 3239 2228 
Q 2838 1875 2053 1875 
L 1259 1875 
L 1259 0 
L 628 0 
L 628 4666 
z
" transform="scale(0.015625)"/>
       <path id="DejaVuSans-6f" d="M 1959 3097 
Q 1497 3097 1228 2736 
Q 959 2375 959 1747 
Q 959 1119 1226 758 
Q 1494 397 1959 397 
Q 2419 397 2687 759 
Q 2956 1122 2956 1747 
Q 2956 2369 2687 2733 
Q 2419 3097 1959 3097 
z
M 1959 3584 
Q 2709 3584 3137 3096 
Q 3566 2609 3566 1747 
Q 3566 888 3137 398 
Q 2709 -91 1959 -91 
Q 1206 -91 779 398 
Q 353 888 353 1747 
Q 353 2609 779 3096 
Q 1206 3584 1959 3584 
z
" transform="scale(0.015625)"/>
       <path id="DejaVuSans-74" d="M 1172 4494 
L 1172 3500 
L 2356 3500 
L 2356 3053 
L 1172 3053 
L 1172 1153 
Q 1172 725 1289 603 
Q 1406 481 1766 481 
L 2356 481 
L 2356 0 
L 1766 0 
Q 1100 0 847 248 
Q 594 497 594 1153 
L 594 3053 
L 172 3053 
L 172 3500 
L 594 3500 
L 594 4494 
L 1172 4494 
z
" transform="scale(0.015625)"/>
       <path id="DejaVuSans-6e" d="M 3513 2113 
L 3513 0 
L 2938 0 
L 2938 2094 
Q 2938 2591 2744 2837 
Q 2550 3084 2163 3084 
Q 1697 3084 1428 2787 
Q 1159 2491 1159 1978 
L 1159 0 
L 581 0 
L 581 3500 
L 1159 3500 
L 1159 2956 
Q 1366 3272 1645 3428 
Q 1925 3584 2291 3584 
Q 2894 3584 3203 3211 
Q 3513 2838 3513 2113 
z
" transform="scale(0.015625)"/>
       <path id="DejaVuSans-63" d="M 3122 3366 
L 3122 2828 
Q 2878 2963 2633 3030 
Q 2388 3097 2138 3097 
Q 1578 3097 1268 2742 
Q 959 2388 959 1747 
Q 959 1106 1268 751 
Q 1578 397 2138 397 
Q 2388 397 2633 464 
Q 2878 531 3122 666 
L 3122 134 
Q 2881 22 2623 -34 
Q 2366 -91 2075 -91 
Q 1284 -91 818 406 
Q 353 903 353 1747 
Q 353 2603 823 3093 
Q 1294 3584 2113 3584 
Q 2378 3584 2631 3529 
Q 2884 3475 3122 3366 
z
" transform="scale(0.015625)"/>
      </defs>
      <use xlink:href="#DejaVuSans-50"/>
      <use xlink:href="#DejaVuSans-6f" x="56.677734"/>
      <use xlink:href="#DejaVuSans-73" x="117.859375"/>
      <use xlink:href="#DejaVuSans-69" x="169.958984"/>
      <use xlink:href="#DejaVuSans-74" x="197.742188"/>
      <use xlink:href="#DejaVuSans-69" x="236.951172"/>
      <use xlink:href="#DejaVuSans-6f" x="264.734375"/>
      <use xlink:href="#DejaVuSans-6e" x="325.916016"/>
      <use xlink:href="#DejaVuSans-20" x="389.294922"/>
      <use xlink:href="#DejaVuSans-28" x="421.082031"/>
      <use xlink:href="#DejaVuSans-63" x="460.095703"/>
      <use xlink:href="#DejaVuSans-6d" x="515.076172"/>
      <use xlink:href="#DejaVuSans-29" x="612.488281"/>
     </g>
    </g>
   </g>
   <g id="line2d_13">
    <path d="M 73.832727 288.620714 
L 75.391381 273.362906 
L 77.274754 252.541332 
L 79.677678 223.276766 
L 87.730721 123.025165 
L 89.679038 102.69098 
L 91.302636 87.973979 
L 92.731402 76.960923 
L 93.965336 69.047639 
L 95.069382 63.297951 
L 96.04354 59.307503 
L 96.887811 56.688856 
L 97.667138 54.972361 
L 98.316577 54.058517 
L 98.836128 53.66572 
L 99.290735 53.568077 
L 99.745343 53.699093 
L 100.19995 54.057393 
L 100.719501 54.742888 
L 101.36894 56.00886 
L 102.083323 57.917501 
L 102.927594 60.853102 
L 103.901752 65.124133 
L 105.005798 71.054011 
L 106.239732 78.959766 
L 107.668498 89.642584 
L 109.292096 103.512098 
L 111.305356 122.760786 
L 113.968056 150.545785 
L 120.462446 219.160092 
L 122.605595 238.967883 
L 124.35908 253.20899 
L 125.917733 264.093153 
L 127.281555 272.090416 
L 128.450545 277.731211 
L 129.489648 281.763662 
L 130.463806 284.683229 
L 131.308077 286.530156 
L 132.02246 287.594556 
L 132.606955 288.125701 
L 133.126506 288.342108 
L 133.646057 288.319305 
L 134.165608 288.059278 
L 134.750103 287.486367 
L 135.399542 286.506856 
L 136.113925 285.020937 
L 136.958196 282.728527 
L 137.932354 279.389163 
L 139.036401 274.753151 
L 140.270335 268.579163 
L 141.699101 260.253416 
L 143.387642 249.020484 
L 145.465847 233.580695 
L 148.453266 209.501673 
L 153.389002 169.727014 
L 155.597095 153.843053 
L 157.415524 142.341412 
L 158.974177 133.874603 
L 160.337999 127.656368 
L 161.506989 123.281001 
L 162.546092 120.168507 
L 163.455306 118.063252 
L 164.299577 116.634505 
L 165.01396 115.825043 
L 165.663399 115.407984 
L 166.247894 115.291953 
L 166.832389 115.420516 
L 167.416884 115.791889 
L 168.066323 116.48624 
L 168.780706 117.58734 
L 169.624977 119.334307 
L 170.534191 121.739271 
L 171.573294 125.124778 
L 172.742284 129.699092 
L 174.106106 135.978199 
L 175.664759 144.256208 
L 177.483188 155.153787 
L 179.821169 170.613348 
L 184.237354 201.728004 
L 187.419605 223.305011 
L 189.562753 236.403014 
L 191.381182 246.197303 
L 192.939836 253.433128 
L 194.303658 258.782876 
L 195.537592 262.776055 
L 196.641638 265.635772 
L 197.615797 267.584592 
L 198.460067 268.831792 
L 199.239394 269.617055 
L 199.953777 270.028541 
L 200.603216 270.148126 
L 201.252655 270.027606 
L 201.902094 269.670074 
L 202.616477 269.007765 
L 203.395804 267.97118 
L 204.305018 266.36062 
L 205.34412 264.013755 
L 206.513111 260.766649 
L 207.811989 256.466653 
L 209.305698 250.722891 
L 211.059183 243.066812 
L 213.267276 232.378093 
L 217.098966 212.492078 
L 220.540993 195.090406 
L 222.684141 185.332727 
L 224.437626 178.299621 
L 225.99628 172.925318 
L 227.360102 168.98781 
L 228.594036 166.091111 
L 229.698082 164.063573 
L 230.672241 162.731555 
L 231.516511 161.930158 
L 232.295838 161.484001 
L 233.010221 161.323208 
L 233.724604 161.399166 
L 234.438987 161.710172 
L 235.218313 162.314278 
L 236.062584 163.274941 
L 236.971799 164.6565 
L 238.010901 166.660192 
L 239.179891 169.428774 
L 240.478769 173.099255 
L 241.972479 178.018151 
L 243.725964 184.611223 
L 245.869113 193.611767 
L 248.856532 207.229859 
L 254.246876 231.886335 
L 256.519912 241.168204 
L 258.403285 247.951685 
L 260.026882 252.994812 
L 261.455648 256.739535 
L 262.754526 259.537707 
L 263.923516 261.539427 
L 264.962619 262.896746 
L 265.871833 263.754361 
L 266.716104 264.273985 
L 267.495431 264.517978 
L 268.274757 264.537829 
L 269.054084 264.336771 
L 269.898355 263.874769 
L 270.80757 263.101141 
L 271.781728 261.966456 
L 272.885774 260.317366 
L 274.119708 258.048883 
L 275.548474 254.91454 
L 277.172072 250.780044 
L 279.120388 245.174447 
L 281.718144 236.96964 
L 288.14759 216.378637 
L 290.225795 210.614077 
L 291.97928 206.390036 
L 293.47299 203.344122 
L 294.836812 201.058651 
L 296.005802 199.503587 
L 297.109848 198.393258 
L 298.084007 197.710849 
L 298.993221 197.329421 
L 299.837492 197.197574 
L 300.681763 197.279701 
L 301.590977 197.605709 
L 302.500192 198.174582 
L 303.47435 199.047578 
L 304.578396 200.355745 
L 305.747387 202.093066 
L 307.046265 204.421125 
L 308.539974 207.56983 
L 310.228516 211.659526 
L 312.30672 217.317658 
L 315.034364 225.454469 
L 322.113249 246.902293 
L 324.321341 252.709521 
L 326.13977 256.897521 
L 327.763368 260.099508 
L 329.192134 262.453341 
L 330.491012 264.191877 
L 331.724946 265.475875 
L 332.828992 266.315021 
L 333.868094 266.835894 
L 334.842253 267.088342 
L 335.816411 267.115438 
L 336.79057 266.921894 
L 337.829672 266.479592 
L 338.933718 265.753904 
L 340.102709 264.714265 
L 341.401586 263.256202 
L 342.895296 261.225502 
L 344.583837 258.53989 
L 346.662042 254.7905 
L 349.584518 249.007104 
L 354.780029 238.697491 
L 356.988122 234.848528 
L 358.806551 232.109362 
L 360.365205 230.139692 
L 361.79397 228.680276 
L 363.092848 227.664033 
L 364.261839 227.015234 
L 365.365885 226.640901 
L 366.469931 226.502022 
L 367.509033 226.587479 
L 368.61308 226.906724 
L 369.717126 227.457667 
L 370.886116 228.286716 
L 372.184994 229.492082 
L 373.61376 231.142712 
L 375.172413 233.297973 
L 376.925899 236.110576 
L 379.004103 239.879142 
L 381.731747 245.326241 
L 389.78479 261.736804 
L 391.992883 265.570163 
L 393.876256 268.410747 
L 395.564797 270.566197 
L 397.123451 272.196027 
L 398.487273 273.323092 
L 398.487273 273.323092 
" clip-path="url(#p27500de6e2)" style="fill: none; stroke: #ffa500; stroke-width: 1.5; stroke-linecap: square"/>
   </g>
   <g id="line2d_14">
    <path d="M 73.832727 172.243546 
L 398.487273 256.450875 
L 398.487273 256.450875 
" clip-path="url(#p27500de6e2)" style="fill: none; stroke-dasharray: 5.55,2.4; stroke-dashoffset: 0; stroke: #008000; stroke-width: 1.5"/>
   </g>
   <g id="patch_3">
    <path d="M 57.6 307.584 
L 57.6 41.472 
" style="fill: none; stroke: #000000; stroke-width: 0.8; stroke-linejoin: miter; stroke-linecap: square"/>
   </g>
   <g id="patch_4">
    <path d="M 414.72 307.584 
L 414.72 41.472 
" style="fill: none; stroke: #000000; stroke-width: 0.8; stroke-linejoin: miter; stroke-linecap: square"/>
   </g>
   <g id="patch_5">
    <path d="M 57.6 307.584 
L 414.72 307.584 
" style="fill: none; stroke: #000000; stroke-width: 0.8; stroke-linejoin: miter; stroke-linecap: square"/>
   </g>
   <g id="patch_6">
    <path d="M 57.6 41.472 
L 414.72 41.472 
" style="fill: none; stroke: #000000; stroke-width: 0.8; stroke-linejoin: miter; stroke-linecap: square"/>
   </g>
   <g id="text_15">
    <!-- ./argon/clip02 2.csv: Argon - Position v. Time -->
    <g transform="translate(103.035937 35.472) scale(0.12 -0.12)">
     <defs>
      <path id="DejaVuSans-2e" d="M 684 794 
L 1344 794 
L 1344 0 
L 684 0 
L 684 794 
z
" transform="scale(0.015625)"/>
      <path id="DejaVuSans-2f" d="M 1625 4666 
L 2156 4666 
L 531 -594 
L 0 -594 
L 1625 4666 
z
" transform="scale(0.015625)"/>
      <path id="DejaVuSans-61" d="M 2194 1759 
Q 1497 1759 1228 1600 
Q 959 1441 959 1056 
Q 959 750 1161 570 
Q 1363 391 1709 391 
Q 2188 391 2477 730 
Q 2766 1069 2766 1631 
L 2766 1759 
L 2194 1759 
z
M 3341 1997 
L 3341 0 
L 2766 0 
L 2766 531 
Q 2569 213 2275 61 
Q 1981 -91 1556 -91 
Q 1019 -91 701 211 
Q 384 513 384 1019 
Q 384 1609 779 1909 
Q 1175 2209 1959 2209 
L 2766 2209 
L 2766 2266 
Q 2766 2663 2505 2880 
Q 2244 3097 1772 3097 
Q 1472 3097 1187 3025 
Q 903 2953 641 2809 
L 641 3341 
Q 956 3463 1253 3523 
Q 1550 3584 1831 3584 
Q 2591 3584 2966 3190 
Q 3341 2797 3341 1997 
z
" transform="scale(0.015625)"/>
      <path id="DejaVuSans-72" d="M 2631 2963 
Q 2534 3019 2420 3045 
Q 2306 3072 2169 3072 
Q 1681 3072 1420 2755 
Q 1159 2438 1159 1844 
L 1159 0 
L 581 0 
L 581 3500 
L 1159 3500 
L 1159 2956 
Q 1341 3275 1631 3429 
Q 1922 3584 2338 3584 
Q 2397 3584 2469 3576 
Q 2541 3569 2628 3553 
L 2631 2963 
z
" transform="scale(0.015625)"/>
      <path id="DejaVuSans-67" d="M 2906 1791 
Q 2906 2416 2648 2759 
Q 2391 3103 1925 3103 
Q 1463 3103 1205 2759 
Q 947 2416 947 1791 
Q 947 1169 1205 825 
Q 1463 481 1925 481 
Q 2391 481 2648 825 
Q 2906 1169 2906 1791 
z
M 3481 434 
Q 3481 -459 3084 -895 
Q 2688 -1331 1869 -1331 
Q 1566 -1331 1297 -1286 
Q 1028 -1241 775 -1147 
L 775 -588 
Q 1028 -725 1275 -790 
Q 1522 -856 1778 -856 
Q 2344 -856 2625 -561 
Q 2906 -266 2906 331 
L 2906 616 
Q 2728 306 2450 153 
Q 2172 0 1784 0 
Q 1141 0 747 490 
Q 353 981 353 1791 
Q 353 2603 747 3093 
Q 1141 3584 1784 3584 
Q 2172 3584 2450 3431 
Q 2728 3278 2906 2969 
L 2906 3500 
L 3481 3500 
L 3481 434 
z
" transform="scale(0.015625)"/>
      <path id="DejaVuSans-6c" d="M 603 4863 
L 1178 4863 
L 1178 0 
L 603 0 
L 603 4863 
z
" transform="scale(0.015625)"/>
      <path id="DejaVuSans-70" d="M 1159 525 
L 1159 -1331 
L 581 -1331 
L 581 3500 
L 1159 3500 
L 1159 2969 
Q 1341 3281 1617 3432 
Q 1894 3584 2278 3584 
Q 2916 3584 3314 3078 
Q 3713 2572 3713 1747 
Q 3713 922 3314 415 
Q 2916 -91 2278 -91 
Q 1894 -91 1617 61 
Q 1341 213 1159 525 
z
M 3116 1747 
Q 3116 2381 2855 2742 
Q 2594 3103 2138 3103 
Q 1681 3103 1420 2742 
Q 1159 2381 1159 1747 
Q 1159 1113 1420 752 
Q 1681 391 2138 391 
Q 2594 391 2855 752 
Q 3116 1113 3116 1747 
z
" transform="scale(0.015625)"/>
      <path id="DejaVuSans-76" d="M 191 3500 
L 800 3500 
L 1894 563 
L 2988 3500 
L 3597 3500 
L 2284 0 
L 1503 0 
L 191 3500 
z
" transform="scale(0.015625)"/>
      <path id="DejaVuSans-3a" d="M 750 794 
L 1409 794 
L 1409 0 
L 750 0 
L 750 794 
z
M 750 3309 
L 1409 3309 
L 1409 2516 
L 750 2516 
L 750 3309 
z
" transform="scale(0.015625)"/>
      <path id="DejaVuSans-41" d="M 2188 4044 
L 1331 1722 
L 3047 1722 
L 2188 4044 
z
M 1831 4666 
L 2547 4666 
L 4325 0 
L 3669 0 
L 3244 1197 
L 1141 1197 
L 716 0 
L 50 0 
L 1831 4666 
z
" transform="scale(0.015625)"/>
      <path id="DejaVuSans-2d" d="M 313 2009 
L 1997 2009 
L 1997 1497 
L 313 1497 
L 313 2009 
z
" transform="scale(0.015625)"/>
     </defs>
     <use xlink:href="#DejaVuSans-2e"/>
     <use xlink:href="#DejaVuSans-2f" x="31.787109"/>
     <use xlink:href="#DejaVuSans-61" x="65.478516"/>
     <use xlink:href="#DejaVuSans-72" x="126.757812"/>
     <use xlink:href="#DejaVuSans-67" x="166.121094"/>
     <use xlink:href="#DejaVuSans-6f" x="229.597656"/>
     <use xlink:href="#DejaVuSans-6e" x="290.779297"/>
     <use xlink:href="#DejaVuSans-2f" x="354.158203"/>
     <use xlink:href="#DejaVuSans-63" x="387.849609"/>
     <use xlink:href="#DejaVuSans-6c" x="442.830078"/>
     <use xlink:href="#DejaVuSans-69" x="470.613281"/>
     <use xlink:href="#DejaVuSans-70" x="498.396484"/>
     <use xlink:href="#DejaVuSans-30" x="561.873047"/>
     <use xlink:href="#DejaVuSans-32" x="625.496094"/>
     <use xlink:href="#DejaVuSans-20" x="689.119141"/>
     <use xlink:href="#DejaVuSans-32" x="720.90625"/>
     <use xlink:href="#DejaVuSans-2e" x="784.529297"/>
     <use xlink:href="#DejaVuSans-63" x="816.316406"/>
     <use xlink:href="#DejaVuSans-73" x="871.296875"/>
     <use xlink:href="#DejaVuSans-76" x="923.396484"/>
     <use xlink:href="#DejaVuSans-3a" x="977.076172"/>
     <use xlink:href="#DejaVuSans-20" x="1010.767578"/>
     <use xlink:href="#DejaVuSans-41" x="1042.554688"/>
     <use xlink:href="#DejaVuSans-72" x="1110.962891"/>
     <use xlink:href="#DejaVuSans-67" x="1150.326172"/>
     <use xlink:href="#DejaVuSans-6f" x="1213.802734"/>
     <use xlink:href="#DejaVuSans-6e" x="1274.984375"/>
     <use xlink:href="#DejaVuSans-20" x="1338.363281"/>
     <use xlink:href="#DejaVuSans-2d" x="1370.150391"/>
     <use xlink:href="#DejaVuSans-20" x="1406.234375"/>
     <use xlink:href="#DejaVuSans-50" x="1438.021484"/>
     <use xlink:href="#DejaVuSans-6f" x="1494.699219"/>
     <use xlink:href="#DejaVuSans-73" x="1555.880859"/>
     <use xlink:href="#DejaVuSans-69" x="1607.980469"/>
     <use xlink:href="#DejaVuSans-74" x="1635.763672"/>
     <use xlink:href="#DejaVuSans-69" x="1674.972656"/>
     <use xlink:href="#DejaVuSans-6f" x="1702.755859"/>
     <use xlink:href="#DejaVuSans-6e" x="1763.9375"/>
     <use xlink:href="#DejaVuSans-20" x="1827.316406"/>
     <use xlink:href="#DejaVuSans-76" x="1859.103516"/>
     <use xlink:href="#DejaVuSans-2e" x="1910.533203"/>
     <use xlink:href="#DejaVuSans-20" x="1942.320312"/>
     <use xlink:href="#DejaVuSans-54" x="1974.107422"/>
     <use xlink:href="#DejaVuSans-69" x="2032.066406"/>
     <use xlink:href="#DejaVuSans-6d" x="2059.849609"/>
     <use xlink:href="#DejaVuSans-65" x="2157.261719"/>
    </g>
   </g>
   <g id="legend_1">
    <g id="patch_7">
     <path d="M 238.084062 93.506375 
L 407.72 93.506375 
Q 409.72 93.506375 409.72 91.506375 
L 409.72 48.472 
Q 409.72 46.472 407.72 46.472 
L 238.084062 46.472 
Q 236.084062 46.472 236.084062 48.472 
L 236.084062 91.506375 
Q 236.084062 93.506375 238.084062 93.506375 
z
" style="fill: #ffffff; opacity: 0.8; stroke: #cccccc; stroke-linejoin: miter"/>
    </g>
    <g id="PathCollection_2">
     <g>
      <use xlink:href="#meea6bcb4c7" x="250.084062" y="55.445438" style="fill: #1f77b4; stroke: #1f77b4"/>
     </g>
    </g>
    <g id="text_16">
     <!-- Data -->
     <g transform="translate(268.084062 58.070438) scale(0.1 -0.1)">
      <defs>
       <path id="DejaVuSans-44" d="M 1259 4147 
L 1259 519 
L 2022 519 
Q 2988 519 3436 956 
Q 3884 1394 3884 2338 
Q 3884 3275 3436 3711 
Q 2988 4147 2022 4147 
L 1259 4147 
z
M 628 4666 
L 1925 4666 
Q 3281 4666 3915 4102 
Q 4550 3538 4550 2338 
Q 4550 1131 3912 565 
Q 3275 0 1925 0 
L 628 0 
L 628 4666 
z
" transform="scale(0.015625)"/>
      </defs>
      <use xlink:href="#DejaVuSans-44"/>
      <use xlink:href="#DejaVuSans-61" x="77.001953"/>
      <use xlink:href="#DejaVuSans-74" x="138.28125"/>
      <use xlink:href="#DejaVuSans-61" x="177.490234"/>
     </g>
    </g>
    <g id="line2d_15">
     <path d="M 240.084062 69.248563 
L 250.084062 69.248563 
L 260.084062 69.248563 
" style="fill: none; stroke: #ffa500; stroke-width: 1.5; stroke-linecap: square"/>
    </g>
    <g id="text_17">
     <!-- Fit -->
     <g transform="translate(268.084062 72.748563) scale(0.1 -0.1)">
      <defs>
       <path id="DejaVuSans-46" d="M 628 4666 
L 3309 4666 
L 3309 4134 
L 1259 4134 
L 1259 2759 
L 3109 2759 
L 3109 2228 
L 1259 2228 
L 1259 0 
L 628 0 
L 628 4666 
z
" transform="scale(0.015625)"/>
      </defs>
      <use xlink:href="#DejaVuSans-46"/>
      <use xlink:href="#DejaVuSans-69" x="50.269531"/>
      <use xlink:href="#DejaVuSans-74" x="78.052734"/>
     </g>
    </g>
    <g id="line2d_16">
     <path d="M 240.084062 83.926688 
L 250.084062 83.926688 
L 260.084062 83.926688 
" style="fill: none; stroke-dasharray: 5.55,2.4; stroke-dashoffset: 0; stroke: #008000; stroke-width: 1.5"/>
    </g>
    <g id="text_18">
     <!-- Eq Point (Linear Correction) -->
     <g transform="translate(268.084062 87.426688) scale(0.1 -0.1)">
      <defs>
       <path id="DejaVuSans-45" d="M 628 4666 
L 3578 4666 
L 3578 4134 
L 1259 4134 
L 1259 2753 
L 3481 2753 
L 3481 2222 
L 1259 2222 
L 1259 531 
L 3634 531 
L 3634 0 
L 628 0 
L 628 4666 
z
" transform="scale(0.015625)"/>
       <path id="DejaVuSans-71" d="M 947 1747 
Q 947 1113 1208 752 
Q 1469 391 1925 391 
Q 2381 391 2643 752 
Q 2906 1113 2906 1747 
Q 2906 2381 2643 2742 
Q 2381 3103 1925 3103 
Q 1469 3103 1208 2742 
Q 947 2381 947 1747 
z
M 2906 525 
Q 2725 213 2448 61 
Q 2172 -91 1784 -91 
Q 1150 -91 751 415 
Q 353 922 353 1747 
Q 353 2572 751 3078 
Q 1150 3584 1784 3584 
Q 2172 3584 2448 3432 
Q 2725 3281 2906 2969 
L 2906 3500 
L 3481 3500 
L 3481 -1331 
L 2906 -1331 
L 2906 525 
z
" transform="scale(0.015625)"/>
       <path id="DejaVuSans-4c" d="M 628 4666 
L 1259 4666 
L 1259 531 
L 3531 531 
L 3531 0 
L 628 0 
L 628 4666 
z
" transform="scale(0.015625)"/>
       <path id="DejaVuSans-43" d="M 4122 4306 
L 4122 3641 
Q 3803 3938 3442 4084 
Q 3081 4231 2675 4231 
Q 1875 4231 1450 3742 
Q 1025 3253 1025 2328 
Q 1025 1406 1450 917 
Q 1875 428 2675 428 
Q 3081 428 3442 575 
Q 3803 722 4122 1019 
L 4122 359 
Q 3791 134 3420 21 
Q 3050 -91 2638 -91 
Q 1578 -91 968 557 
Q 359 1206 359 2328 
Q 359 3453 968 4101 
Q 1578 4750 2638 4750 
Q 3056 4750 3426 4639 
Q 3797 4528 4122 4306 
z
" transform="scale(0.015625)"/>
      </defs>
      <use xlink:href="#DejaVuSans-45"/>
      <use xlink:href="#DejaVuSans-71" x="63.183594"/>
      <use xlink:href="#DejaVuSans-20" x="126.660156"/>
      <use xlink:href="#DejaVuSans-50" x="158.447266"/>
      <use xlink:href="#DejaVuSans-6f" x="215.125"/>
      <use xlink:href="#DejaVuSans-69" x="276.306641"/>
      <use xlink:href="#DejaVuSans-6e" x="304.089844"/>
      <use xlink:href="#DejaVuSans-74" x="367.46875"/>
      <use xlink:href="#DejaVuSans-20" x="406.677734"/>
      <use xlink:href="#DejaVuSans-28" x="438.464844"/>
      <use xlink:href="#DejaVuSans-4c" x="477.478516"/>
      <use xlink:href="#DejaVuSans-69" x="533.191406"/>
      <use xlink:href="#DejaVuSans-6e" x="560.974609"/>
      <use xlink:href="#DejaVuSans-65" x="624.353516"/>
      <use xlink:href="#DejaVuSans-61" x="685.876953"/>
      <use xlink:href="#DejaVuSans-72" x="747.15625"/>
      <use xlink:href="#DejaVuSans-20" x="788.269531"/>
      <use xlink:href="#DejaVuSans-43" x="820.056641"/>
      <use xlink:href="#DejaVuSans-6f" x="889.880859"/>
      <use xlink:href="#DejaVuSans-72" x="951.0625"/>
      <use xlink:href="#DejaVuSans-72" x="990.425781"/>
      <use xlink:href="#DejaVuSans-65" x="1029.289062"/>
      <use xlink:href="#DejaVuSans-63" x="1090.8125"/>
      <use xlink:href="#DejaVuSans-74" x="1145.792969"/>
      <use xlink:href="#DejaVuSans-69" x="1185.001953"/>
      <use xlink:href="#DejaVuSans-6f" x="1212.785156"/>
      <use xlink:href="#DejaVuSans-6e" x="1273.966797"/>
      <use xlink:href="#DejaVuSans-29" x="1337.345703"/>
     </g>
    </g>
   </g>
  </g>
 </g>
 <defs>
  <clipPath id="p27500de6e2">
   <rect x="57.6" y="41.472" width="357.12" height="266.112"/>
  </clipPath>
 </defs>
</svg>
